<svg width="1425" height="606" viewBox="0 0 1425 606" fill="none" xmlns="http://www.w3.org/2000/svg">
<g filter="url(#filter0_d_2010_169)">
<mask id="path-1-inside-1_2010_169" fill="white">
<path fill-rule="evenodd" clip-rule="evenodd" d="M24 374.069L48 364.069V48.0691H579L569 24.0691H48H24V48.0691V374.069Z"/>
</mask>
<path fill-rule="evenodd" clip-rule="evenodd" d="M24 374.069L48 364.069V48.0691H579L569 24.0691H48H24V48.0691V374.069Z" fill="white" fill-opacity="0.05"/>
<path d="M48 364.069L48.3846 364.992L49 364.736V364.069H48ZM24 374.069H23V375.569L24.3846 374.992L24 374.069ZM48 48.0691V47.0691H47V48.0691H48ZM579 48.0691V49.0691H580.5L579.923 47.6845L579 48.0691ZM569 24.0691L569.923 23.6845L569.667 23.0691H569V24.0691ZM24 24.0691V23.0691H23V24.0691H24ZM47.6154 363.146L23.6154 373.146L24.3846 374.992L48.3846 364.992L47.6154 363.146ZM47 48.0691V364.069H49V48.0691H47ZM579 47.0691H48V49.0691H579V47.0691ZM568.077 24.4537L578.077 48.4537L579.923 47.6845L569.923 23.6845L568.077 24.4537ZM48 25.0691H569V23.0691H48V25.0691ZM24 25.0691H48V23.0691H24V25.0691ZM25 48.0691V24.0691H23V48.0691H25ZM25 374.069V48.0691H23V374.069H25Z" fill="#A88769" fill-opacity="0.25" mask="url(#path-1-inside-1_2010_169)"/>
</g>
<g filter="url(#filter1_d_2010_169)">
<path d="M24 460L48 450V472L24 483V460Z" fill="#F6E336" fill-opacity="0.15"/>
<path d="M24.5 482.221V460.333L47.5 450.75V471.679L24.5 482.221Z" stroke="#A88769" stroke-opacity="0.25"/>
</g>
<g filter="url(#filter2_d_2010_169)">
<path d="M24 493L48 483V505L24 516V493Z" fill="#F6E336" fill-opacity="0.15"/>
<path d="M24.5 515.221V493.333L47.5 483.75V504.679L24.5 515.221Z" stroke="#A88769" stroke-opacity="0.25"/>
</g>
<g filter="url(#filter3_d_2010_169)">
<path d="M24 526L48 516V538L24 549V526Z" fill="#F6E336" fill-opacity="0.15"/>
<path d="M24.5 548.221V526.333L47.5 516.75V537.679L24.5 548.221Z" stroke="#A88769" stroke-opacity="0.25"/>
</g>
<g filter="url(#filter4_d_2010_169)">
<path d="M24 559L48 549V571L24 582V559Z" fill="#F6E336" fill-opacity="0.15"/>
<path d="M24.5 581.221V559.333L47.5 549.75V570.679L24.5 581.221Z" stroke="#A88769" stroke-opacity="0.25"/>
</g>
<g filter="url(#filter5_d_2010_169)">
<mask id="path-11-outside-2_2010_169" maskUnits="userSpaceOnUse" x="24" y="378" width="23" height="70" fill="black">
<rect fill="white" x="24" y="378" width="23" height="70"/>
<path d="M40.4977 381.079L42.1243 379.737C43.0393 380.367 44.239 381.323 44.8083 381.994L43.1003 383.458C42.5717 382.767 41.433 381.75 40.4977 381.079ZM27.037 383.194H45.337V385.573H27.037V383.194ZM27.7893 387.911H36.5937V390.27H27.7893V387.911ZM30.88 389.253H33.32V396.146H30.88V389.253ZM27.0167 395.8C29.477 395.434 33.4623 394.743 37.1223 394.052L37.3053 396.227C33.9503 396.959 30.3513 397.712 27.708 398.261L27.0167 395.8ZM37.0207 379.818H39.6437C39.4607 388.175 41.006 396.288 42.9377 396.288C43.385 396.288 43.6087 395.17 43.7307 392.608C44.2797 393.177 45.1743 393.767 45.8657 394.011C45.4997 397.895 44.666 398.85 42.7343 398.85C38.322 398.85 37.041 389.233 37.0207 379.818ZM38.017 407.072C37.7323 409.146 37.3257 411.525 36.614 413.924C35.394 418.031 33.6453 420.553 31.429 420.553C29.1517 420.553 27.281 418.052 27.281 414.615C27.281 409.939 31.368 405.913 36.6343 405.913C41.6567 405.913 44.849 409.41 44.849 413.863C44.849 418.133 42.226 421.163 37.102 421.956L35.5567 419.556C36.3497 419.455 36.919 419.353 37.468 419.231C40.0503 418.601 42.0837 416.75 42.0837 413.761C42.0837 410.569 40.091 408.292 36.5733 408.292C32.2627 408.292 29.904 411.809 29.904 414.371C29.904 416.425 30.7173 417.421 31.49 417.421C32.3643 417.421 33.137 416.12 33.991 413.375C34.5807 411.464 35.028 409.125 35.2313 406.99L38.017 407.072ZM35.7193 435.159H44.1373V437.233H35.7193V435.159ZM35.699 439.042H44.5237V441.218H35.699V439.042ZM38.6473 427.778H40.9857V446.81H38.6473V427.778ZM34.4993 431.214H45.2963V441.93H42.9783V433.39H36.7157V442.031H34.4993V431.214ZM26.9963 431.499H33.076V433.695H26.9963V431.499ZM29.4363 427.757H31.8153V432.536H29.4363V427.757ZM32.039 436.257C32.6083 436.623 34.3773 438.188 34.8043 438.595L33.381 440.547C32.7507 439.673 31.368 438.148 30.6767 437.416L32.039 436.257ZM32.1813 431.499H32.6693L33.076 431.417L34.418 432.271C33.015 436.216 30.1887 439.815 27.3827 441.747C27.1793 441.096 26.5897 439.876 26.2237 439.429C28.7653 437.904 31.185 434.915 32.1813 431.946V431.499ZM29.4363 438.453L31.8153 435.586V446.83H29.4363V438.453Z"/>
</mask>
<path d="M40.4977 381.079L42.1243 379.737C43.0393 380.367 44.239 381.323 44.8083 381.994L43.1003 383.458C42.5717 382.767 41.433 381.75 40.4977 381.079ZM27.037 383.194H45.337V385.573H27.037V383.194ZM27.7893 387.911H36.5937V390.27H27.7893V387.911ZM30.88 389.253H33.32V396.146H30.88V389.253ZM27.0167 395.8C29.477 395.434 33.4623 394.743 37.1223 394.052L37.3053 396.227C33.9503 396.959 30.3513 397.712 27.708 398.261L27.0167 395.8ZM37.0207 379.818H39.6437C39.4607 388.175 41.006 396.288 42.9377 396.288C43.385 396.288 43.6087 395.17 43.7307 392.608C44.2797 393.177 45.1743 393.767 45.8657 394.011C45.4997 397.895 44.666 398.85 42.7343 398.85C38.322 398.85 37.041 389.233 37.0207 379.818ZM38.017 407.072C37.7323 409.146 37.3257 411.525 36.614 413.924C35.394 418.031 33.6453 420.553 31.429 420.553C29.1517 420.553 27.281 418.052 27.281 414.615C27.281 409.939 31.368 405.913 36.6343 405.913C41.6567 405.913 44.849 409.41 44.849 413.863C44.849 418.133 42.226 421.163 37.102 421.956L35.5567 419.556C36.3497 419.455 36.919 419.353 37.468 419.231C40.0503 418.601 42.0837 416.75 42.0837 413.761C42.0837 410.569 40.091 408.292 36.5733 408.292C32.2627 408.292 29.904 411.809 29.904 414.371C29.904 416.425 30.7173 417.421 31.49 417.421C32.3643 417.421 33.137 416.12 33.991 413.375C34.5807 411.464 35.028 409.125 35.2313 406.99L38.017 407.072ZM35.7193 435.159H44.1373V437.233H35.7193V435.159ZM35.699 439.042H44.5237V441.218H35.699V439.042ZM38.6473 427.778H40.9857V446.81H38.6473V427.778ZM34.4993 431.214H45.2963V441.93H42.9783V433.39H36.7157V442.031H34.4993V431.214ZM26.9963 431.499H33.076V433.695H26.9963V431.499ZM29.4363 427.757H31.8153V432.536H29.4363V427.757ZM32.039 436.257C32.6083 436.623 34.3773 438.188 34.8043 438.595L33.381 440.547C32.7507 439.673 31.368 438.148 30.6767 437.416L32.039 436.257ZM32.1813 431.499H32.6693L33.076 431.417L34.418 432.271C33.015 436.216 30.1887 439.815 27.3827 441.747C27.1793 441.096 26.5897 439.876 26.2237 439.429C28.7653 437.904 31.185 434.915 32.1813 431.946V431.499ZM29.4363 438.453L31.8153 435.586V446.83H29.4363V438.453Z" fill="white" fill-opacity="0.1" shape-rendering="crispEdges"/>
<path d="M40.4977 381.079L39.8613 380.308L38.8592 381.134L39.9148 381.892L40.4977 381.079ZM42.1243 379.737L42.6916 378.913L42.0701 378.485L41.488 378.966L42.1243 379.737ZM44.8083 381.994L45.4591 382.753L46.2146 382.106L45.5708 381.347L44.8083 381.994ZM43.1003 383.458L42.306 384.065L42.9483 384.905L43.7511 384.217L43.1003 383.458ZM27.037 383.194V382.194H26.037V383.194H27.037ZM45.337 383.194H46.337V382.194H45.337V383.194ZM45.337 385.573V386.573H46.337V385.573H45.337ZM27.037 385.573H26.037V386.573H27.037V385.573ZM27.7893 387.911V386.911H26.7893V387.911H27.7893ZM36.5937 387.911H37.5937V386.911H36.5937V387.911ZM36.5937 390.27V391.27H37.5937V390.27H36.5937ZM27.7893 390.27H26.7893V391.27H27.7893V390.27ZM30.88 389.253V388.253H29.88V389.253H30.88ZM33.32 389.253H34.32V388.253H33.32V389.253ZM33.32 396.146V397.146H34.32V396.146H33.32ZM30.88 396.146H29.88V397.146H30.88V396.146ZM27.0167 395.8L26.8695 394.811L25.7469 394.978L26.054 396.071L27.0167 395.8ZM37.1223 394.052L38.1188 393.968L38.0259 392.863L36.9367 393.069L37.1223 394.052ZM37.3053 396.227L37.5185 397.204L38.3753 397.017L38.3018 396.144L37.3053 396.227ZM27.708 398.261L26.7453 398.531L26.9977 399.43L27.9114 399.24L27.708 398.261ZM37.0207 379.818V378.818H36.0185L36.0207 379.82L37.0207 379.818ZM39.6437 379.818L40.6434 379.84L40.6658 378.818H39.6437V379.818ZM43.7307 392.608L44.4505 391.914L42.842 390.246L42.7318 392.56L43.7307 392.608ZM45.8657 394.011L46.8613 394.105L46.9345 393.328L46.1985 393.068L45.8657 394.011ZM41.1341 381.85L42.7607 380.508L41.488 378.966L39.8613 380.308L41.1341 381.85ZM41.557 380.561C42.4564 381.18 43.5655 382.075 44.0458 382.641L45.5708 381.347C44.9125 380.571 43.6223 379.555 42.6916 378.913L41.557 380.561ZM44.1575 381.235L42.4495 382.699L43.7511 384.217L45.4591 382.753L44.1575 381.235ZM43.8947 382.851C43.282 382.049 42.0558 380.966 41.0806 380.266L39.9148 381.892C40.8102 382.534 41.8614 383.484 42.306 384.065L43.8947 382.851ZM27.037 384.194H45.337V382.194H27.037V384.194ZM44.337 383.194V385.573H46.337V383.194H44.337ZM45.337 384.573H27.037V386.573H45.337V384.573ZM28.037 385.573V383.194H26.037V385.573H28.037ZM27.7893 388.911H36.5937V386.911H27.7893V388.911ZM35.5937 387.911V390.27H37.5937V387.911H35.5937ZM36.5937 389.27H27.7893V391.27H36.5937V389.27ZM28.7893 390.27V387.911H26.7893V390.27H28.7893ZM30.88 390.253H33.32V388.253H30.88V390.253ZM32.32 389.253V396.146H34.32V389.253H32.32ZM33.32 395.146H30.88V397.146H33.32V395.146ZM31.88 396.146V389.253H29.88V396.146H31.88ZM27.1638 396.789C29.642 396.421 33.6414 395.727 37.3079 395.034L36.9367 393.069C33.2833 393.759 29.312 394.448 26.8695 394.811L27.1638 396.789ZM36.1259 394.135L36.3089 396.311L38.3018 396.144L38.1188 393.968L36.1259 394.135ZM37.0922 395.25C33.7423 395.981 30.1474 396.733 27.5046 397.282L27.9114 399.24C30.5553 398.691 34.1583 397.937 37.5185 397.204L37.0922 395.25ZM28.6707 397.99L27.9794 395.53L26.054 396.071L26.7453 398.531L28.6707 397.99ZM37.0207 380.818H39.6437V378.818H37.0207V380.818ZM38.6439 379.796C38.5511 384.034 38.8953 388.225 39.5165 391.38C39.8255 392.95 40.2128 394.315 40.6753 395.311C40.9051 395.806 41.1778 396.264 41.5098 396.613C41.841 396.961 42.3205 397.288 42.9377 397.288V395.288C43.072 395.288 43.0806 395.362 42.9582 395.234C42.8367 395.106 42.6732 394.865 42.4894 394.469C42.1245 393.683 41.7747 392.497 41.4788 390.994C40.8902 388.004 40.5532 383.96 40.6434 379.84L38.6439 379.796ZM42.9377 397.288C43.5531 397.288 43.9204 396.876 44.0936 396.583C44.2631 396.297 44.3638 395.95 44.4345 395.616C44.5797 394.931 44.6684 393.94 44.7295 392.656L42.7318 392.56C42.671 393.838 42.5868 394.688 42.4779 395.202C42.4517 395.325 42.4267 395.416 42.4049 395.481C42.3824 395.549 42.369 395.57 42.3727 395.564C42.3743 395.561 42.5459 395.288 42.9377 395.288V397.288ZM43.0108 393.302C43.6577 393.973 44.6818 394.654 45.5328 394.954L46.1985 393.068C45.6668 392.88 44.9017 392.382 44.4505 391.914L43.0108 393.302ZM44.8701 393.917C44.6875 395.855 44.3987 396.83 44.0618 397.322C43.916 397.536 43.7669 397.648 43.5977 397.719C43.4101 397.799 43.1425 397.85 42.7343 397.85V399.85C43.292 399.85 43.853 399.783 44.3764 399.561C44.9182 399.332 45.3626 398.963 45.7124 398.452C46.3668 397.495 46.6779 396.051 46.8613 394.105L44.8701 393.917ZM42.7343 397.85C42.0587 397.85 41.4215 397.504 40.7997 396.623C40.1639 395.723 39.6266 394.367 39.202 392.628C38.3559 389.162 38.0308 384.498 38.0207 379.816L36.0207 379.82C36.0309 384.553 36.3565 389.405 37.259 393.102C37.7087 394.944 38.3203 396.58 39.1662 397.777C40.0262 398.995 41.2038 399.85 42.7343 399.85V397.85ZM38.017 407.072L39.0077 407.208L39.1591 406.105L38.0462 406.072L38.017 407.072ZM36.614 413.924L37.5726 414.209L37.5727 414.208L36.614 413.924ZM37.102 421.956L36.2613 422.497L36.613 423.043L37.2549 422.944L37.102 421.956ZM35.5567 419.556L35.4295 418.564L33.8581 418.766L34.716 420.098L35.5567 419.556ZM37.468 419.231L37.6849 420.207L37.6951 420.205L37.7051 420.202L37.468 419.231ZM33.991 413.375L34.9459 413.672L34.9466 413.67L33.991 413.375ZM35.2313 406.99L35.2605 405.991L34.3246 405.963L34.2358 406.896L35.2313 406.99ZM37.0263 406.936C36.7447 408.987 36.3463 411.31 35.6553 413.64L37.5727 414.208C38.3051 411.739 38.72 409.304 39.0077 407.208L37.0263 406.936ZM35.6554 413.639C35.0616 415.638 34.3619 417.167 33.5981 418.175C32.8378 419.178 32.1088 419.553 31.429 419.553V421.553C32.9655 421.553 34.2191 420.667 35.1921 419.383C36.1617 418.103 36.9464 416.317 37.5726 414.209L35.6554 413.639ZM31.429 419.553C30.6862 419.553 29.9264 419.149 29.3151 418.292C28.7024 417.433 28.281 416.16 28.281 414.615H26.281C26.281 416.507 26.7949 418.203 27.6869 419.453C28.5803 420.706 29.8944 421.553 31.429 421.553V419.553ZM28.281 414.615C28.281 410.542 31.8683 406.913 36.6343 406.913V404.913C30.8677 404.913 26.281 409.336 26.281 414.615H28.281ZM36.6343 406.913C38.905 406.913 40.6956 407.698 41.9167 408.924C43.141 410.152 43.849 411.879 43.849 413.863H45.849C45.849 411.394 44.9609 409.145 43.3334 407.512C41.7028 405.876 39.386 404.913 36.6343 404.913V406.913ZM43.849 413.863C43.849 415.784 43.2641 417.353 42.1656 418.531C41.0593 419.718 39.3496 420.596 36.9491 420.967L37.2549 422.944C39.9784 422.522 42.1422 421.489 43.6284 419.895C45.1224 418.293 45.849 416.212 45.849 413.863H43.849ZM37.9427 421.414L36.3974 419.015L34.716 420.098L36.2613 422.497L37.9427 421.414ZM35.6838 420.548C36.5034 420.443 37.1029 420.337 37.6849 420.207L37.2511 418.255C36.7351 418.369 36.1959 418.466 35.4295 418.564L35.6838 420.548ZM37.7051 420.202C40.6119 419.493 43.0837 417.327 43.0837 413.761H41.0837C41.0837 416.173 39.4888 417.708 37.2309 418.26L37.7051 420.202ZM43.0837 413.761C43.0837 411.958 42.5178 410.323 41.366 409.134C40.2088 407.939 38.555 407.292 36.5733 407.292V409.292C38.1093 409.292 39.2107 409.783 39.9293 410.525C40.6533 411.273 41.0837 412.373 41.0837 413.761H43.0837ZM36.5733 407.292C31.6537 407.292 28.904 411.316 28.904 414.371H30.904C30.904 412.303 32.8717 409.292 36.5733 409.292V407.292ZM28.904 414.371C28.904 415.518 29.1292 416.472 29.5471 417.176C29.9615 417.875 30.6385 418.421 31.49 418.421V416.421C31.5688 416.421 31.4528 416.469 31.2674 416.156C31.0855 415.85 30.904 415.279 30.904 414.371H28.904ZM31.49 418.421C32.4816 418.421 33.1532 417.681 33.601 416.95C34.0769 416.172 34.5128 415.064 34.9459 413.672L33.0361 413.078C32.6152 414.431 32.2378 415.346 31.8952 415.905C31.5246 416.511 31.3727 416.421 31.49 416.421V418.421ZM34.9466 413.67C35.5586 411.686 36.0178 409.28 36.2268 407.085L34.2358 406.896C34.0382 408.971 33.6027 411.241 33.0354 413.08L34.9466 413.67ZM35.2022 407.99L37.9878 408.071L38.0462 406.072L35.2605 405.991L35.2022 407.99ZM35.7193 435.159V434.159H34.7193V435.159H35.7193ZM44.1373 435.159H45.1373V434.159H44.1373V435.159ZM44.1373 437.233V438.233H45.1373V437.233H44.1373ZM35.7193 437.233H34.7193V438.233H35.7193V437.233ZM35.699 439.042V438.042H34.699V439.042H35.699ZM44.5237 439.042H45.5237V438.042H44.5237V439.042ZM44.5237 441.218V442.218H45.5237V441.218H44.5237ZM35.699 441.218H34.699V442.218H35.699V441.218ZM38.6473 427.778V426.778H37.6473V427.778H38.6473ZM40.9857 427.778H41.9857V426.778H40.9857V427.778ZM40.9857 446.81V447.81H41.9857V446.81H40.9857ZM38.6473 446.81H37.6473V447.81H38.6473V446.81ZM34.4993 431.214V430.214H33.4993V431.214H34.4993ZM45.2963 431.214H46.2963V430.214H45.2963V431.214ZM45.2963 441.93V442.93H46.2963V441.93H45.2963ZM42.9783 441.93H41.9783V442.93H42.9783V441.93ZM42.9783 433.39H43.9783V432.39H42.9783V433.39ZM36.7157 433.39V432.39H35.7157V433.39H36.7157ZM36.7157 442.031V443.031H37.7157V442.031H36.7157ZM34.4993 442.031H33.4993V443.031H34.4993V442.031ZM26.9963 431.499V430.499H25.9963V431.499H26.9963ZM33.076 431.499H34.076V430.499H33.076V431.499ZM33.076 433.695V434.695H34.076V433.695H33.076ZM26.9963 433.695H25.9963V434.695H26.9963V433.695ZM29.4363 427.757V426.757H28.4363V427.757H29.4363ZM31.8153 427.757H32.8153V426.757H31.8153V427.757ZM31.8153 432.536V433.536H32.8153V432.536H31.8153ZM29.4363 432.536H28.4363V433.536H29.4363V432.536ZM32.039 436.257L32.5798 435.415L31.9559 435.014L31.391 435.495L32.039 436.257ZM34.8043 438.595L35.6123 439.184L36.129 438.476L35.494 437.871L34.8043 438.595ZM33.381 440.547L32.5698 441.132L33.3764 442.251L34.189 441.136L33.381 440.547ZM30.6767 437.416L30.0287 436.654L29.2264 437.337L29.9497 438.102L30.6767 437.416ZM32.1813 431.499V430.499H31.1813V431.499H32.1813ZM32.6693 431.499V432.499H32.7684L32.8654 432.479L32.6693 431.499ZM33.076 431.417L33.6129 430.574L33.2739 430.358L32.8799 430.437L33.076 431.417ZM34.418 432.271L35.3602 432.606L35.6273 431.856L34.9549 431.428L34.418 432.271ZM27.3827 441.747L26.4282 442.045L26.8327 443.339L27.9497 442.57L27.3827 441.747ZM26.2237 439.429L25.7092 438.571L24.7171 439.166L25.4497 440.062L26.2237 439.429ZM32.1813 431.946L33.1294 432.264L33.1813 432.109V431.946H32.1813ZM29.4363 438.453L28.6668 437.814L28.4363 438.092V438.453H29.4363ZM31.8153 435.586H32.8153V432.815L31.0458 434.947L31.8153 435.586ZM31.8153 446.83V447.83H32.8153V446.83H31.8153ZM29.4363 446.83H28.4363V447.83H29.4363V446.83ZM35.7193 436.159H44.1373V434.159H35.7193V436.159ZM43.1373 435.159V437.233H45.1373V435.159H43.1373ZM44.1373 436.233H35.7193V438.233H44.1373V436.233ZM36.7193 437.233V435.159H34.7193V437.233H36.7193ZM35.699 440.042H44.5237V438.042H35.699V440.042ZM43.5237 439.042V441.218H45.5237V439.042H43.5237ZM44.5237 440.218H35.699V442.218H44.5237V440.218ZM36.699 441.218V439.042H34.699V441.218H36.699ZM38.6473 428.778H40.9857V426.778H38.6473V428.778ZM39.9857 427.778V446.81H41.9857V427.778H39.9857ZM40.9857 445.81H38.6473V447.81H40.9857V445.81ZM39.6473 446.81V427.778H37.6473V446.81H39.6473ZM34.4993 432.214H45.2963V430.214H34.4993V432.214ZM44.2963 431.214V441.93H46.2963V431.214H44.2963ZM45.2963 440.93H42.9783V442.93H45.2963V440.93ZM43.9783 441.93V433.39H41.9783V441.93H43.9783ZM42.9783 432.39H36.7157V434.39H42.9783V432.39ZM35.7157 433.39V442.031H37.7157V433.39H35.7157ZM36.7157 441.031H34.4993V443.031H36.7157V441.031ZM35.4993 442.031V431.214H33.4993V442.031H35.4993ZM26.9963 432.499H33.076V430.499H26.9963V432.499ZM32.076 431.499V433.695H34.076V431.499H32.076ZM33.076 432.695H26.9963V434.695H33.076V432.695ZM27.9963 433.695V431.499H25.9963V433.695H27.9963ZM29.4363 428.757H31.8153V426.757H29.4363V428.757ZM30.8153 427.757V432.536H32.8153V427.757H30.8153ZM31.8153 431.536H29.4363V433.536H31.8153V431.536ZM30.4363 432.536V427.757H28.4363V432.536H30.4363ZM31.4982 437.098C31.7118 437.235 32.2393 437.666 32.8226 438.168C33.3847 438.652 33.9191 439.133 34.1147 439.319L35.494 437.871C35.2626 437.65 34.699 437.145 34.1275 436.653C33.5772 436.179 32.9355 435.644 32.5798 435.415L31.4982 437.098ZM33.9963 438.006L32.573 439.958L34.189 441.136L35.6123 439.184L33.9963 438.006ZM34.1922 439.962C33.5181 439.027 32.092 437.458 31.4037 436.729L29.9497 438.102C30.644 438.837 31.9832 440.318 32.5698 441.132L34.1922 439.962ZM31.3246 438.177L32.687 437.018L31.391 435.495L30.0287 436.654L31.3246 438.177ZM32.1813 432.499H32.6693V430.499H32.1813V432.499ZM32.8654 432.479L33.2721 432.398L32.8799 430.437L32.4732 430.518L32.8654 432.479ZM32.5391 432.261L33.8811 433.115L34.9549 431.428L33.6129 430.574L32.5391 432.261ZM33.4758 431.936C32.1393 435.694 29.4385 439.117 26.8156 440.923L27.9497 442.57C30.9388 440.513 33.8907 436.738 35.3602 432.606L33.4758 431.936ZM28.3371 441.448C28.2138 441.054 27.9908 440.534 27.7606 440.068C27.5381 439.618 27.2576 439.113 26.9976 438.795L25.4497 440.062C25.5557 440.191 25.7531 440.52 25.9677 440.955C26.1747 441.373 26.3482 441.789 26.4282 442.045L28.3371 441.448ZM26.7382 440.286C29.4868 438.637 32.0584 435.455 33.1294 432.264L31.2333 431.628C30.3116 434.374 28.0439 437.17 25.7092 438.571L26.7382 440.286ZM33.1813 431.946V431.499H31.1813V431.946H33.1813ZM30.2059 439.091L32.5849 436.224L31.0458 434.947L28.6668 437.814L30.2059 439.091ZM30.8153 435.586V446.83H32.8153V435.586H30.8153ZM31.8153 445.83H29.4363V447.83H31.8153V445.83ZM30.4363 446.83V438.453H28.4363V446.83H30.4363Z" fill="#F6E336" fill-opacity="0.5" mask="url(#path-11-outside-2_2010_169)"/>
</g>
<g filter="url(#filter6_d_2010_169)">
<path d="M1377 460L1401 450V472L1377 483V460Z" fill="#F6E336" fill-opacity="0.15"/>
<path d="M1377.5 482.221V460.333L1400.5 450.75V471.679L1377.5 482.221Z" stroke="#A88769" stroke-opacity="0.25"/>
</g>
<g filter="url(#filter7_d_2010_169)">
<path d="M1377 493L1401 483V505L1377 516V493Z" fill="#F6E336" fill-opacity="0.15"/>
<path d="M1377.5 515.221V493.333L1400.5 483.75V504.679L1377.5 515.221Z" stroke="#A88769" stroke-opacity="0.25"/>
</g>
<g filter="url(#filter8_d_2010_169)">
<path d="M1377 526L1401 516V538L1377 549V526Z" fill="#F6E336" fill-opacity="0.15"/>
<path d="M1377.5 548.221V526.333L1400.5 516.75V537.679L1377.5 548.221Z" stroke="#A88769" stroke-opacity="0.25"/>
</g>
<g filter="url(#filter9_d_2010_169)">
<path d="M1377 559L1401 549V571L1377 582V559Z" fill="#F6E336" fill-opacity="0.15"/>
<path d="M1377.5 581.221V559.333L1400.5 549.75V570.679L1377.5 581.221Z" stroke="#A88769" stroke-opacity="0.25"/>
</g>
<g filter="url(#filter10_d_2010_169)">
<mask id="path-21-outside-3_2010_169" maskUnits="userSpaceOnUse" x="1377" y="378" width="23" height="70" fill="black">
<rect fill="white" x="1377" y="378" width="23" height="70"/>
<path d="M1393.5 381.079L1395.12 379.737C1396.04 380.367 1397.24 381.323 1397.81 381.994L1396.1 383.458C1395.57 382.767 1394.43 381.75 1393.5 381.079ZM1380.04 383.194H1398.34V385.573H1380.04V383.194ZM1380.79 387.911H1389.59V390.27H1380.79V387.911ZM1383.88 389.253H1386.32V396.146H1383.88V389.253ZM1380.02 395.8C1382.48 395.434 1386.46 394.743 1390.12 394.052L1390.31 396.227C1386.95 396.959 1383.35 397.712 1380.71 398.261L1380.02 395.8ZM1390.02 379.818H1392.64C1392.46 388.175 1394.01 396.288 1395.94 396.288C1396.39 396.288 1396.61 395.17 1396.73 392.608C1397.28 393.177 1398.17 393.767 1398.87 394.011C1398.5 397.895 1397.67 398.85 1395.73 398.85C1391.32 398.85 1390.04 389.233 1390.02 379.818ZM1391.02 407.072C1390.73 409.146 1390.33 411.525 1389.61 413.924C1388.39 418.031 1386.65 420.553 1384.43 420.553C1382.15 420.553 1380.28 418.052 1380.28 414.615C1380.28 409.939 1384.37 405.913 1389.63 405.913C1394.66 405.913 1397.85 409.41 1397.85 413.863C1397.85 418.133 1395.23 421.163 1390.1 421.956L1388.56 419.556C1389.35 419.455 1389.92 419.353 1390.47 419.231C1393.05 418.601 1395.08 416.75 1395.08 413.761C1395.08 410.569 1393.09 408.292 1389.57 408.292C1385.26 408.292 1382.9 411.809 1382.9 414.371C1382.9 416.425 1383.72 417.421 1384.49 417.421C1385.36 417.421 1386.14 416.12 1386.99 413.375C1387.58 411.464 1388.03 409.125 1388.23 406.99L1391.02 407.072ZM1388.72 435.159H1397.14V437.233H1388.72V435.159ZM1388.7 439.042H1397.52V441.218H1388.7V439.042ZM1391.65 427.778H1393.99V446.81H1391.65V427.778ZM1387.5 431.214H1398.3V441.93H1395.98V433.39H1389.72V442.031H1387.5V431.214ZM1380 431.499H1386.08V433.695H1380V431.499ZM1382.44 427.757H1384.82V432.536H1382.44V427.757ZM1385.04 436.257C1385.61 436.623 1387.38 438.188 1387.8 438.595L1386.38 440.547C1385.75 439.673 1384.37 438.148 1383.68 437.416L1385.04 436.257ZM1385.18 431.499H1385.67L1386.08 431.417L1387.42 432.271C1386.02 436.216 1383.19 439.815 1380.38 441.747C1380.18 441.096 1379.59 439.876 1379.22 439.429C1381.77 437.904 1384.19 434.915 1385.18 431.946V431.499ZM1382.44 438.453L1384.82 435.586V446.83H1382.44V438.453Z"/>
</mask>
<path d="M1393.5 381.079L1395.12 379.737C1396.04 380.367 1397.24 381.323 1397.81 381.994L1396.1 383.458C1395.57 382.767 1394.43 381.75 1393.5 381.079ZM1380.04 383.194H1398.34V385.573H1380.04V383.194ZM1380.79 387.911H1389.59V390.27H1380.79V387.911ZM1383.88 389.253H1386.32V396.146H1383.88V389.253ZM1380.02 395.8C1382.48 395.434 1386.46 394.743 1390.12 394.052L1390.31 396.227C1386.95 396.959 1383.35 397.712 1380.71 398.261L1380.02 395.8ZM1390.02 379.818H1392.64C1392.46 388.175 1394.01 396.288 1395.94 396.288C1396.39 396.288 1396.61 395.17 1396.73 392.608C1397.28 393.177 1398.17 393.767 1398.87 394.011C1398.5 397.895 1397.67 398.85 1395.73 398.85C1391.32 398.85 1390.04 389.233 1390.02 379.818ZM1391.02 407.072C1390.73 409.146 1390.33 411.525 1389.61 413.924C1388.39 418.031 1386.65 420.553 1384.43 420.553C1382.15 420.553 1380.28 418.052 1380.28 414.615C1380.28 409.939 1384.37 405.913 1389.63 405.913C1394.66 405.913 1397.85 409.41 1397.85 413.863C1397.85 418.133 1395.23 421.163 1390.1 421.956L1388.56 419.556C1389.35 419.455 1389.92 419.353 1390.47 419.231C1393.05 418.601 1395.08 416.75 1395.08 413.761C1395.08 410.569 1393.09 408.292 1389.57 408.292C1385.26 408.292 1382.9 411.809 1382.9 414.371C1382.9 416.425 1383.72 417.421 1384.49 417.421C1385.36 417.421 1386.14 416.12 1386.99 413.375C1387.58 411.464 1388.03 409.125 1388.23 406.99L1391.02 407.072ZM1388.72 435.159H1397.14V437.233H1388.72V435.159ZM1388.7 439.042H1397.52V441.218H1388.7V439.042ZM1391.65 427.778H1393.99V446.81H1391.65V427.778ZM1387.5 431.214H1398.3V441.93H1395.98V433.39H1389.72V442.031H1387.5V431.214ZM1380 431.499H1386.08V433.695H1380V431.499ZM1382.44 427.757H1384.82V432.536H1382.44V427.757ZM1385.04 436.257C1385.61 436.623 1387.38 438.188 1387.8 438.595L1386.38 440.547C1385.75 439.673 1384.37 438.148 1383.68 437.416L1385.04 436.257ZM1385.18 431.499H1385.67L1386.08 431.417L1387.42 432.271C1386.02 436.216 1383.19 439.815 1380.38 441.747C1380.18 441.096 1379.59 439.876 1379.22 439.429C1381.77 437.904 1384.19 434.915 1385.18 431.946V431.499ZM1382.44 438.453L1384.82 435.586V446.83H1382.44V438.453Z" fill="white" fill-opacity="0.1" shape-rendering="crispEdges"/>
<path d="M1393.5 381.079L1392.86 380.308L1391.86 381.134L1392.91 381.892L1393.5 381.079ZM1395.12 379.737L1395.69 378.913L1395.07 378.485L1394.49 378.966L1395.12 379.737ZM1397.81 381.994L1398.46 382.753L1399.21 382.106L1398.57 381.347L1397.81 381.994ZM1396.1 383.458L1395.31 384.065L1395.95 384.905L1396.75 384.217L1396.1 383.458ZM1380.04 383.194V382.194H1379.04V383.194H1380.04ZM1398.34 383.194H1399.34V382.194H1398.34V383.194ZM1398.34 385.573V386.573H1399.34V385.573H1398.34ZM1380.04 385.573H1379.04V386.573H1380.04V385.573ZM1380.79 387.911V386.911H1379.79V387.911H1380.79ZM1389.59 387.911H1390.59V386.911H1389.59V387.911ZM1389.59 390.27V391.27H1390.59V390.27H1389.59ZM1380.79 390.27H1379.79V391.27H1380.79V390.27ZM1383.88 389.253V388.253H1382.88V389.253H1383.88ZM1386.32 389.253H1387.32V388.253H1386.32V389.253ZM1386.32 396.146V397.146H1387.32V396.146H1386.32ZM1383.88 396.146H1382.88V397.146H1383.88V396.146ZM1380.02 395.8L1379.87 394.811L1378.75 394.978L1379.05 396.071L1380.02 395.8ZM1390.12 394.052L1391.12 393.968L1391.03 392.863L1389.94 393.069L1390.12 394.052ZM1390.31 396.227L1390.52 397.204L1391.38 397.017L1391.3 396.144L1390.31 396.227ZM1380.71 398.261L1379.75 398.531L1380 399.43L1380.91 399.24L1380.71 398.261ZM1390.02 379.818V378.818H1389.02L1389.02 379.82L1390.02 379.818ZM1392.64 379.818L1393.64 379.84L1393.67 378.818H1392.64V379.818ZM1396.73 392.608L1397.45 391.914L1395.84 390.246L1395.73 392.56L1396.73 392.608ZM1398.87 394.011L1399.86 394.105L1399.93 393.328L1399.2 393.068L1398.87 394.011ZM1394.13 381.85L1395.76 380.508L1394.49 378.966L1392.86 380.308L1394.13 381.85ZM1394.56 380.561C1395.46 381.18 1396.57 382.075 1397.05 382.641L1398.57 381.347C1397.91 380.571 1396.62 379.555 1395.69 378.913L1394.56 380.561ZM1397.16 381.235L1395.45 382.699L1396.75 384.217L1398.46 382.753L1397.16 381.235ZM1396.89 382.851C1396.28 382.049 1395.06 380.966 1394.08 380.266L1392.91 381.892C1393.81 382.534 1394.86 383.484 1395.31 384.065L1396.89 382.851ZM1380.04 384.194H1398.34V382.194H1380.04V384.194ZM1397.34 383.194V385.573H1399.34V383.194H1397.34ZM1398.34 384.573H1380.04V386.573H1398.34V384.573ZM1381.04 385.573V383.194H1379.04V385.573H1381.04ZM1380.79 388.911H1389.59V386.911H1380.79V388.911ZM1388.59 387.911V390.27H1390.59V387.911H1388.59ZM1389.59 389.27H1380.79V391.27H1389.59V389.27ZM1381.79 390.27V387.911H1379.79V390.27H1381.79ZM1383.88 390.253H1386.32V388.253H1383.88V390.253ZM1385.32 389.253V396.146H1387.32V389.253H1385.32ZM1386.32 395.146H1383.88V397.146H1386.32V395.146ZM1384.88 396.146V389.253H1382.88V396.146H1384.88ZM1380.16 396.789C1382.64 396.421 1386.64 395.727 1390.31 395.034L1389.94 393.069C1386.28 393.759 1382.31 394.448 1379.87 394.811L1380.16 396.789ZM1389.13 394.135L1389.31 396.311L1391.3 396.144L1391.12 393.968L1389.13 394.135ZM1390.09 395.25C1386.74 395.981 1383.15 396.733 1380.5 397.282L1380.91 399.24C1383.56 398.691 1387.16 397.937 1390.52 397.204L1390.09 395.25ZM1381.67 397.99L1380.98 395.53L1379.05 396.071L1379.75 398.531L1381.67 397.99ZM1390.02 380.818H1392.64V378.818H1390.02V380.818ZM1391.64 379.796C1391.55 384.034 1391.9 388.225 1392.52 391.38C1392.83 392.95 1393.21 394.315 1393.68 395.311C1393.91 395.806 1394.18 396.264 1394.51 396.613C1394.84 396.961 1395.32 397.288 1395.94 397.288V395.288C1396.07 395.288 1396.08 395.362 1395.96 395.234C1395.84 395.106 1395.67 394.865 1395.49 394.469C1395.12 393.683 1394.77 392.497 1394.48 390.994C1393.89 388.004 1393.55 383.96 1393.64 379.84L1391.64 379.796ZM1395.94 397.288C1396.55 397.288 1396.92 396.876 1397.09 396.583C1397.26 396.297 1397.36 395.95 1397.43 395.616C1397.58 394.931 1397.67 393.94 1397.73 392.656L1395.73 392.56C1395.67 393.838 1395.59 394.688 1395.48 395.202C1395.45 395.325 1395.43 395.416 1395.4 395.481C1395.38 395.549 1395.37 395.57 1395.37 395.564C1395.37 395.561 1395.55 395.288 1395.94 395.288V397.288ZM1396.01 393.302C1396.66 393.973 1397.68 394.654 1398.53 394.954L1399.2 393.068C1398.67 392.88 1397.9 392.382 1397.45 391.914L1396.01 393.302ZM1397.87 393.917C1397.69 395.855 1397.4 396.83 1397.06 397.322C1396.92 397.536 1396.77 397.648 1396.6 397.719C1396.41 397.799 1396.14 397.85 1395.73 397.85V399.85C1396.29 399.85 1396.85 399.783 1397.38 399.561C1397.92 399.332 1398.36 398.963 1398.71 398.452C1399.37 397.495 1399.68 396.051 1399.86 394.105L1397.87 393.917ZM1395.73 397.85C1395.06 397.85 1394.42 397.504 1393.8 396.623C1393.16 395.723 1392.63 394.367 1392.2 392.628C1391.36 389.162 1391.03 384.498 1391.02 379.816L1389.02 379.82C1389.03 384.553 1389.36 389.405 1390.26 393.102C1390.71 394.944 1391.32 396.58 1392.17 397.777C1393.03 398.995 1394.2 399.85 1395.73 399.85V397.85ZM1391.02 407.072L1392.01 407.208L1392.16 406.105L1391.05 406.072L1391.02 407.072ZM1389.61 413.924L1390.57 414.209L1390.57 414.208L1389.61 413.924ZM1390.1 421.956L1389.26 422.497L1389.61 423.043L1390.25 422.944L1390.1 421.956ZM1388.56 419.556L1388.43 418.564L1386.86 418.766L1387.72 420.098L1388.56 419.556ZM1390.47 419.231L1390.68 420.207L1390.7 420.205L1390.71 420.202L1390.47 419.231ZM1386.99 413.375L1387.95 413.672L1387.95 413.67L1386.99 413.375ZM1388.23 406.99L1388.26 405.991L1387.32 405.963L1387.24 406.896L1388.23 406.99ZM1390.03 406.936C1389.74 408.987 1389.35 411.31 1388.66 413.64L1390.57 414.208C1391.31 411.739 1391.72 409.304 1392.01 407.208L1390.03 406.936ZM1388.66 413.639C1388.06 415.638 1387.36 417.167 1386.6 418.175C1385.84 419.178 1385.11 419.553 1384.43 419.553V421.553C1385.97 421.553 1387.22 420.667 1388.19 419.383C1389.16 418.103 1389.95 416.317 1390.57 414.209L1388.66 413.639ZM1384.43 419.553C1383.69 419.553 1382.93 419.149 1382.32 418.292C1381.7 417.433 1381.28 416.16 1381.28 414.615H1379.28C1379.28 416.507 1379.79 418.203 1380.69 419.453C1381.58 420.706 1382.89 421.553 1384.43 421.553V419.553ZM1381.28 414.615C1381.28 410.542 1384.87 406.913 1389.63 406.913V404.913C1383.87 404.913 1379.28 409.336 1379.28 414.615H1381.28ZM1389.63 406.913C1391.9 406.913 1393.7 407.698 1394.92 408.924C1396.14 410.152 1396.85 411.879 1396.85 413.863H1398.85C1398.85 411.394 1397.96 409.145 1396.33 407.512C1394.7 405.876 1392.39 404.913 1389.63 404.913V406.913ZM1396.85 413.863C1396.85 415.784 1396.26 417.353 1395.17 418.531C1394.06 419.718 1392.35 420.596 1389.95 420.967L1390.25 422.944C1392.98 422.522 1395.14 421.489 1396.63 419.895C1398.12 418.293 1398.85 416.212 1398.85 413.863H1396.85ZM1390.94 421.414L1389.4 419.015L1387.72 420.098L1389.26 422.497L1390.94 421.414ZM1388.68 420.548C1389.5 420.443 1390.1 420.337 1390.68 420.207L1390.25 418.255C1389.74 418.369 1389.2 418.466 1388.43 418.564L1388.68 420.548ZM1390.71 420.202C1393.61 419.493 1396.08 417.327 1396.08 413.761H1394.08C1394.08 416.173 1392.49 417.708 1390.23 418.26L1390.71 420.202ZM1396.08 413.761C1396.08 411.958 1395.52 410.323 1394.37 409.134C1393.21 407.939 1391.56 407.292 1389.57 407.292V409.292C1391.11 409.292 1392.21 409.783 1392.93 410.525C1393.65 411.273 1394.08 412.373 1394.08 413.761H1396.08ZM1389.57 407.292C1384.65 407.292 1381.9 411.316 1381.9 414.371H1383.9C1383.9 412.303 1385.87 409.292 1389.57 409.292V407.292ZM1381.9 414.371C1381.9 415.518 1382.13 416.472 1382.55 417.176C1382.96 417.875 1383.64 418.421 1384.49 418.421V416.421C1384.57 416.421 1384.45 416.469 1384.27 416.156C1384.09 415.85 1383.9 415.279 1383.9 414.371H1381.9ZM1384.49 418.421C1385.48 418.421 1386.15 417.681 1386.6 416.95C1387.08 416.172 1387.51 415.064 1387.95 413.672L1386.04 413.078C1385.62 414.431 1385.24 415.346 1384.9 415.905C1384.52 416.511 1384.37 416.421 1384.49 416.421V418.421ZM1387.95 413.67C1388.56 411.686 1389.02 409.28 1389.23 407.085L1387.24 406.896C1387.04 408.971 1386.6 411.241 1386.04 413.08L1387.95 413.67ZM1388.2 407.99L1390.99 408.071L1391.05 406.072L1388.26 405.991L1388.2 407.99ZM1388.72 435.159V434.159H1387.72V435.159H1388.72ZM1397.14 435.159H1398.14V434.159H1397.14V435.159ZM1397.14 437.233V438.233H1398.14V437.233H1397.14ZM1388.72 437.233H1387.72V438.233H1388.72V437.233ZM1388.7 439.042V438.042H1387.7V439.042H1388.7ZM1397.52 439.042H1398.52V438.042H1397.52V439.042ZM1397.52 441.218V442.218H1398.52V441.218H1397.52ZM1388.7 441.218H1387.7V442.218H1388.7V441.218ZM1391.65 427.778V426.778H1390.65V427.778H1391.65ZM1393.99 427.778H1394.99V426.778H1393.99V427.778ZM1393.99 446.81V447.81H1394.99V446.81H1393.99ZM1391.65 446.81H1390.65V447.81H1391.65V446.81ZM1387.5 431.214V430.214H1386.5V431.214H1387.5ZM1398.3 431.214H1399.3V430.214H1398.3V431.214ZM1398.3 441.93V442.93H1399.3V441.93H1398.3ZM1395.98 441.93H1394.98V442.93H1395.98V441.93ZM1395.98 433.39H1396.98V432.39H1395.98V433.39ZM1389.72 433.39V432.39H1388.72V433.39H1389.72ZM1389.72 442.031V443.031H1390.72V442.031H1389.72ZM1387.5 442.031H1386.5V443.031H1387.5V442.031ZM1380 431.499V430.499H1379V431.499H1380ZM1386.08 431.499H1387.08V430.499H1386.08V431.499ZM1386.08 433.695V434.695H1387.08V433.695H1386.08ZM1380 433.695H1379V434.695H1380V433.695ZM1382.44 427.757V426.757H1381.44V427.757H1382.44ZM1384.82 427.757H1385.82V426.757H1384.82V427.757ZM1384.82 432.536V433.536H1385.82V432.536H1384.82ZM1382.44 432.536H1381.44V433.536H1382.44V432.536ZM1385.04 436.257L1385.58 435.415L1384.96 435.014L1384.39 435.495L1385.04 436.257ZM1387.8 438.595L1388.61 439.184L1389.13 438.476L1388.49 437.871L1387.8 438.595ZM1386.38 440.547L1385.57 441.132L1386.38 442.251L1387.19 441.136L1386.38 440.547ZM1383.68 437.416L1383.03 436.654L1382.23 437.337L1382.95 438.102L1383.68 437.416ZM1385.18 431.499V430.499H1384.18V431.499H1385.18ZM1385.67 431.499V432.499H1385.77L1385.87 432.479L1385.67 431.499ZM1386.08 431.417L1386.61 430.574L1386.27 430.358L1385.88 430.437L1386.08 431.417ZM1387.42 432.271L1388.36 432.606L1388.63 431.856L1387.95 431.428L1387.42 432.271ZM1380.38 441.747L1379.43 442.045L1379.83 443.339L1380.95 442.57L1380.38 441.747ZM1379.22 439.429L1378.71 438.571L1377.72 439.166L1378.45 440.062L1379.22 439.429ZM1385.18 431.946L1386.13 432.264L1386.18 432.109V431.946H1385.18ZM1382.44 438.453L1381.67 437.814L1381.44 438.092V438.453H1382.44ZM1384.82 435.586H1385.82V432.815L1384.05 434.947L1384.82 435.586ZM1384.82 446.83V447.83H1385.82V446.83H1384.82ZM1382.44 446.83H1381.44V447.83H1382.44V446.83ZM1388.72 436.159H1397.14V434.159H1388.72V436.159ZM1396.14 435.159V437.233H1398.14V435.159H1396.14ZM1397.14 436.233H1388.72V438.233H1397.14V436.233ZM1389.72 437.233V435.159H1387.72V437.233H1389.72ZM1388.7 440.042H1397.52V438.042H1388.7V440.042ZM1396.52 439.042V441.218H1398.52V439.042H1396.52ZM1397.52 440.218H1388.7V442.218H1397.52V440.218ZM1389.7 441.218V439.042H1387.7V441.218H1389.7ZM1391.65 428.778H1393.99V426.778H1391.65V428.778ZM1392.99 427.778V446.81H1394.99V427.778H1392.99ZM1393.99 445.81H1391.65V447.81H1393.99V445.81ZM1392.65 446.81V427.778H1390.65V446.81H1392.65ZM1387.5 432.214H1398.3V430.214H1387.5V432.214ZM1397.3 431.214V441.93H1399.3V431.214H1397.3ZM1398.3 440.93H1395.98V442.93H1398.3V440.93ZM1396.98 441.93V433.39H1394.98V441.93H1396.98ZM1395.98 432.39H1389.72V434.39H1395.98V432.39ZM1388.72 433.39V442.031H1390.72V433.39H1388.72ZM1389.72 441.031H1387.5V443.031H1389.72V441.031ZM1388.5 442.031V431.214H1386.5V442.031H1388.5ZM1380 432.499H1386.08V430.499H1380V432.499ZM1385.08 431.499V433.695H1387.08V431.499H1385.08ZM1386.08 432.695H1380V434.695H1386.08V432.695ZM1381 433.695V431.499H1379V433.695H1381ZM1382.44 428.757H1384.82V426.757H1382.44V428.757ZM1383.82 427.757V432.536H1385.82V427.757H1383.82ZM1384.82 431.536H1382.44V433.536H1384.82V431.536ZM1383.44 432.536V427.757H1381.44V432.536H1383.44ZM1384.5 437.098C1384.71 437.235 1385.24 437.666 1385.82 438.168C1386.38 438.652 1386.92 439.133 1387.11 439.319L1388.49 437.871C1388.26 437.65 1387.7 437.145 1387.13 436.653C1386.58 436.179 1385.94 435.644 1385.58 435.415L1384.5 437.098ZM1387 438.006L1385.57 439.958L1387.19 441.136L1388.61 439.184L1387 438.006ZM1387.19 439.962C1386.52 439.027 1385.09 437.458 1384.4 436.729L1382.95 438.102C1383.64 438.837 1384.98 440.318 1385.57 441.132L1387.19 439.962ZM1384.32 438.177L1385.69 437.018L1384.39 435.495L1383.03 436.654L1384.32 438.177ZM1385.18 432.499H1385.67V430.499H1385.18V432.499ZM1385.87 432.479L1386.27 432.398L1385.88 430.437L1385.47 430.518L1385.87 432.479ZM1385.54 432.261L1386.88 433.115L1387.95 431.428L1386.61 430.574L1385.54 432.261ZM1386.48 431.936C1385.14 435.694 1382.44 439.117 1379.82 440.923L1380.95 442.57C1383.94 440.513 1386.89 436.738 1388.36 432.606L1386.48 431.936ZM1381.34 441.448C1381.21 441.054 1380.99 440.534 1380.76 440.068C1380.54 439.618 1380.26 439.113 1380 438.795L1378.45 440.062C1378.56 440.191 1378.75 440.52 1378.97 440.955C1379.17 441.373 1379.35 441.789 1379.43 442.045L1381.34 441.448ZM1379.74 440.286C1382.49 438.637 1385.06 435.455 1386.13 432.264L1384.23 431.628C1383.31 434.374 1381.04 437.17 1378.71 438.571L1379.74 440.286ZM1386.18 431.946V431.499H1384.18V431.946H1386.18ZM1383.21 439.091L1385.58 436.224L1384.05 434.947L1381.67 437.814L1383.21 439.091ZM1383.82 435.586V446.83H1385.82V435.586H1383.82ZM1384.82 445.83H1382.44V447.83H1384.82V445.83ZM1383.44 446.83V438.453H1381.44V446.83H1383.44Z" fill="#F6E336" fill-opacity="0.5" mask="url(#path-21-outside-3_2010_169)"/>
</g>
<g filter="url(#filter11_d_2010_169)">
<mask id="path-23-inside-4_2010_169" fill="white">
<path fill-rule="evenodd" clip-rule="evenodd" d="M1401 364.069L1377 374.069V117.04L1308.03 48.0691H845L856 24.0691H1317.83L1317.9 24L1317.97 24.0691H1318L1318.02 24.1195L1401 107.099L1400.53 107.569H1401V364.069Z"/>
</mask>
<path fill-rule="evenodd" clip-rule="evenodd" d="M1401 364.069L1377 374.069V117.04L1308.03 48.0691H845L856 24.0691H1317.83L1317.9 24L1317.97 24.0691H1318L1318.02 24.1195L1401 107.099L1400.53 107.569H1401V364.069Z" fill="white" fill-opacity="0.05"/>
<path d="M1377 374.069H1376V375.569L1377.38 374.992L1377 374.069ZM1401 364.069L1401.38 364.992L1402 364.736V364.069H1401ZM1377 117.04H1378V116.625L1377.71 116.333L1377 117.04ZM1308.03 48.0691L1308.74 47.362L1308.44 47.0691H1308.03V48.0691ZM845 48.0691L844.091 47.6524L843.442 49.0691H845V48.0691ZM856 24.0691V23.0691H855.358L855.091 23.6524L856 24.0691ZM1317.83 24.0691V25.0691H1318.25L1318.54 24.7762L1317.83 24.0691ZM1317.9 24L1318.61 23.2929L1317.9 22.5858L1317.19 23.2929L1317.9 24ZM1317.97 24.0691L1317.26 24.7762L1317.56 25.0691H1317.97V24.0691ZM1318 24.0691L1318.92 23.6845L1318.67 23.0691H1318V24.0691ZM1318.02 24.1195L1317.1 24.5041L1317.17 24.6867L1317.31 24.8266L1318.02 24.1195ZM1401 107.099L1401.71 107.806L1402.41 107.099L1401.71 106.391L1401 107.099ZM1400.53 107.569L1399.82 106.862L1398.12 108.569H1400.53V107.569ZM1401 107.569H1402V106.569H1401V107.569ZM1377.38 374.992L1401.38 364.992L1400.62 363.146L1376.62 373.146L1377.38 374.992ZM1376 117.04V374.069H1378V117.04H1376ZM1377.71 116.333L1308.74 47.362L1307.32 48.7762L1376.29 117.747L1377.71 116.333ZM845 49.0691H1308.03V47.0691H845V49.0691ZM855.091 23.6524L844.091 47.6524L845.909 48.4857L856.909 24.4857L855.091 23.6524ZM1317.83 23.0691H856V25.0691H1317.83V23.0691ZM1318.54 24.7762L1318.61 24.7071L1317.19 23.2929L1317.13 23.362L1318.54 24.7762ZM1317.19 24.7071L1317.26 24.7762L1318.68 23.362L1318.61 23.2929L1317.19 24.7071ZM1318 23.0691H1317.97V25.0691H1318V23.0691ZM1318.94 23.7349L1318.92 23.6845L1317.08 24.4537L1317.1 24.5041L1318.94 23.7349ZM1317.31 24.8266L1400.29 107.806L1401.71 106.391L1318.73 23.4124L1317.31 24.8266ZM1400.29 106.391L1399.82 106.862L1401.24 108.276L1401.71 107.806L1400.29 106.391ZM1401 106.569H1400.53V108.569H1401V106.569ZM1402 364.069V107.569H1400V364.069H1402Z" fill="#A88769" fill-opacity="0.25" mask="url(#path-23-inside-4_2010_169)"/>
</g>
<g filter="url(#filter12_d_2010_169)">
<path d="M673.992 20.348C674.294 20.2109 674.76 20.2246 675.391 20.3892C676.022 20.5263 676.68 20.7595 677.366 21.0886C678.051 21.3903 678.71 21.7606 679.34 22.1995C679.971 22.6109 680.451 23.0223 680.78 23.4337C681.11 23.8452 681.219 24.2154 681.11 24.5446C681.027 24.8737 680.602 25.0931 679.834 25.2029C677.667 25.5594 675.692 26.0943 673.91 26.8074C672.154 27.5206 670.632 28.2748 669.343 29.0703C668.081 29.8383 667.066 30.5788 666.298 31.292C665.558 31.9777 665.119 32.4714 664.982 32.7731C664.899 32.9651 665.078 33.1297 665.517 33.2668C665.983 33.4039 666.586 33.5137 667.327 33.5959C668.095 33.6508 668.931 33.7057 669.836 33.7605C670.769 33.7879 671.647 33.8154 672.47 33.8428C673.32 33.8702 674.06 33.8977 674.691 33.9251C675.35 33.9525 675.775 33.9799 675.967 34.0074C676.735 34.1719 677.228 34.6382 677.448 35.4062C677.695 36.1742 677.695 37.0656 677.448 38.0805C677.228 39.0679 676.762 40.0965 676.049 41.1662C675.363 42.2359 674.458 43.141 673.334 43.8816C673.114 44.0461 672.703 44.3341 672.099 44.7456C671.523 45.157 670.851 45.637 670.083 46.1856C669.343 46.7341 668.561 47.2964 667.738 47.8724C666.915 48.4758 666.147 49.0244 665.434 49.5181C664.721 50.0392 664.104 50.4644 663.583 50.7935C663.089 51.1501 662.787 51.3558 662.678 51.4107C662.403 51.5478 661.978 51.5615 661.402 51.4518C660.854 51.3421 660.25 51.1501 659.592 50.8758C658.961 50.6289 658.33 50.3135 657.699 49.9295C657.069 49.573 656.52 49.2027 656.054 48.8187C655.587 48.4347 655.258 48.0781 655.066 47.749C654.874 47.4198 654.915 47.1455 655.19 46.9261C656.067 46.2404 657.069 45.5958 658.193 44.9924C659.345 44.3616 660.538 43.7856 661.773 43.2644C663.007 42.7433 664.241 42.2633 665.475 41.8244C666.737 41.3582 667.916 40.9467 669.014 40.5902C670.111 40.2062 671.084 39.877 671.935 39.6027C672.785 39.301 673.443 39.0405 673.91 38.821C674.239 38.6565 674.513 38.437 674.732 38.1628C674.979 37.8885 675.158 37.6142 675.267 37.3399C675.377 37.0382 675.446 36.7639 675.473 36.5171C675.5 36.2428 675.473 36.0508 675.391 35.9411C675.363 35.8862 675.116 35.8314 674.65 35.7765C674.184 35.7216 673.594 35.6668 672.881 35.6119C672.195 35.5571 671.427 35.5159 670.577 35.4885C669.727 35.4611 668.876 35.4474 668.026 35.4474C667.176 35.4199 666.367 35.4199 665.599 35.4474C664.858 35.4474 664.255 35.4611 663.789 35.4885C663.459 35.5159 663.199 35.4199 663.007 35.2005C662.815 34.9811 662.678 34.7205 662.595 34.4188C662.513 34.1171 662.486 33.8017 662.513 33.4725C662.541 33.1159 662.595 32.8142 662.678 32.5674C662.952 31.772 663.391 30.8394 663.994 29.7697C664.598 28.6725 665.366 27.5617 666.298 26.4371C667.258 25.2851 668.369 24.1743 669.631 23.1046C670.92 22.0349 672.374 21.116 673.992 20.348ZM679.668 20.4715C679.668 20.1149 679.792 19.9366 680.039 19.9366C680.285 19.9092 680.546 20.0189 680.82 20.2658C681.095 20.4852 681.328 20.8006 681.52 21.212C681.712 21.596 681.753 22.0212 681.643 22.4875C681.506 23.1457 681.383 24.1332 681.273 25.4497C681.191 26.7388 681.122 28.22 681.067 29.8931C681.012 31.5388 680.957 33.2942 680.903 35.1594C680.875 36.9971 680.861 38.7799 680.861 40.5079C681.108 40.2062 681.424 39.9182 681.808 39.6439C682.192 39.3422 682.535 39.1639 682.836 39.109C683.275 39.0268 683.7 39.1639 684.112 39.5205C684.55 39.877 684.962 40.3022 685.346 40.7959C685.73 41.2896 686.086 41.7696 686.416 42.2359C686.772 42.6747 687.101 42.9353 687.403 43.0176C687.76 43.1273 688.212 42.9902 688.761 42.6062C689.337 42.2222 689.817 41.7422 690.201 41.1662C690.585 40.6176 690.832 40.5353 690.941 40.9193C691.078 41.3033 690.928 41.989 690.489 42.9764C690.269 43.4701 689.981 43.9913 689.625 44.5399C689.268 45.061 688.87 45.5547 688.432 46.021C688.02 46.4598 687.581 46.8301 687.115 47.1318C686.649 47.4061 686.21 47.5295 685.798 47.5021C685.387 47.5021 685.017 47.3375 684.688 47.0084C684.386 46.6793 684.098 46.2816 683.824 45.8153C683.549 45.349 683.289 44.8553 683.042 44.3341C682.823 43.813 682.603 43.3604 682.384 42.9764C682.164 42.565 681.917 42.2633 681.643 42.0713C681.396 41.8793 681.122 41.8793 680.82 42.0713V49.9295C680.82 50.5055 680.738 50.9444 680.573 51.2461C680.436 51.5752 680.285 51.7947 680.121 51.9044C679.956 52.0141 679.805 52.0141 679.668 51.9044C679.531 51.8221 679.463 51.6575 679.463 51.4107C679.463 51.2187 679.463 50.6015 679.463 49.5592C679.463 48.5444 679.463 47.2278 679.463 45.6096C679.463 43.9913 679.463 42.1536 679.463 40.0965C679.463 38.0393 679.476 35.8999 679.504 33.6782C679.531 31.4565 679.545 29.2211 679.545 26.972C679.572 24.6954 679.613 22.5286 679.668 20.4715ZM689.948 34.9536C690.085 34.5971 690.428 34.4462 690.977 34.5011C691.553 34.5285 692.293 34.5971 693.198 34.7068C694.103 34.8165 695.159 34.8851 696.366 34.9125C697.573 34.9125 698.876 34.7205 700.275 34.3365C700.714 34.2268 700.919 34.2405 700.892 34.3776C700.865 34.4874 700.673 34.6794 700.316 34.9536C699.959 35.2005 699.479 35.5159 698.876 35.8999C698.3 36.2565 697.683 36.6268 697.025 37.0108C696.366 37.3673 695.708 37.7102 695.05 38.0393C694.391 38.341 693.815 38.5742 693.322 38.7388C693.377 39.2325 693.486 39.7673 693.651 40.3433C693.843 40.9193 694.062 41.4679 694.309 41.989C694.556 42.5102 694.817 42.949 695.091 43.3056C695.365 43.6621 695.639 43.8541 695.914 43.8816C696.27 43.9364 696.627 43.8404 696.983 43.5936C697.367 43.3193 697.697 42.9902 697.971 42.6062C698.19 42.277 698.355 42.1124 698.465 42.1124C698.602 42.085 698.684 42.1673 698.711 42.3593C698.739 42.5239 698.711 42.7707 698.629 43.0999C698.547 43.4016 698.41 43.717 698.218 44.0461C697.751 44.8141 697.134 45.4587 696.366 45.9798C695.626 46.4736 694.899 46.7341 694.186 46.7616C693.582 46.789 693.006 46.6518 692.458 46.3501C691.937 46.021 691.47 45.6096 691.059 45.1158C690.675 44.5947 690.387 44.0187 690.195 43.3879C690.003 42.757 689.934 42.1399 689.989 41.5364C690.044 41.0702 690.25 40.6039 690.606 40.1376C690.963 39.6439 691.374 39.205 691.841 38.821C691.512 38.7113 691.21 38.5056 690.936 38.2039C690.661 37.9022 690.428 37.5731 690.236 37.2165C690.044 36.8325 689.921 36.4485 689.866 36.0645C689.811 35.6531 689.838 35.2828 689.948 34.9536ZM695.53 43.7993C695.694 43.7444 695.982 43.7033 696.394 43.6759C696.805 43.621 697.285 43.5661 697.834 43.5113C697.834 42.5787 697.82 41.6599 697.793 40.7547C697.793 39.8222 697.779 38.9445 697.751 38.1216C697.751 37.2988 697.724 36.5445 697.669 35.8588C697.642 35.1731 697.587 34.5971 697.505 34.1308C697.45 33.8017 697.45 33.3765 697.505 32.8554C697.587 32.3342 697.697 31.7994 697.834 31.2508C697.971 30.7022 698.122 30.1948 698.286 29.7285C698.478 29.2348 698.656 28.8783 698.821 28.6588C698.986 28.4394 699.123 28.3846 699.232 28.4943C699.37 28.604 699.452 28.9743 699.479 29.6051C699.507 30.044 699.52 30.7434 699.52 31.7034C699.52 32.6359 699.507 33.7331 699.479 34.9948C699.479 36.2291 699.466 37.5731 699.438 39.0268C699.411 40.453 699.383 41.8793 699.356 43.3056C700.261 42.8667 701.098 42.4004 701.866 41.9067C702.661 41.413 703.347 40.933 703.923 40.4667C704.526 39.973 705.006 39.5205 705.363 39.109C705.747 38.6976 705.994 38.341 706.103 38.0393C706.213 37.7376 706.378 37.5868 706.597 37.5868C706.844 37.5868 707.05 37.6965 707.214 37.9159C707.379 38.1079 707.475 38.3822 707.502 38.7388C707.557 39.0679 707.461 39.4108 707.214 39.7673C706.967 40.1513 706.432 40.6862 705.61 41.3719C704.814 42.0302 703.58 42.6884 701.907 43.3467C702.922 43.3193 703.964 43.2919 705.034 43.2644C706.103 43.2096 707.104 43.1684 708.037 43.141C708.97 43.0862 709.779 43.045 710.464 43.0176C711.178 42.9627 711.699 42.8942 712.028 42.8119C712.576 42.7022 712.768 42.853 712.604 43.2644C712.439 43.6484 712.096 44.1147 711.575 44.6633C711.054 45.1844 710.451 45.6781 709.765 46.1444C709.079 46.5833 708.503 46.8027 708.037 46.8027C707.708 46.8027 707.2 46.7753 706.515 46.7204C705.856 46.6656 705.116 46.597 704.293 46.5147C703.47 46.4324 702.62 46.3638 701.742 46.309C700.864 46.2267 700.055 46.1856 699.315 46.1856C699.287 47.2004 699.26 48.1604 699.232 49.0655C699.205 49.9707 699.164 50.7524 699.109 51.4107C699.082 52.0964 699.054 52.6449 699.027 53.0564C698.999 53.4952 698.972 53.7421 698.944 53.7969C698.807 54.0986 698.588 54.1535 698.286 53.9615C697.985 53.7695 697.806 53.3444 697.751 52.6861C697.697 52.3844 697.683 51.6301 697.71 50.4232C697.738 49.2438 697.765 47.845 697.793 46.2267C697.409 46.2541 697.066 46.3227 696.764 46.4324C696.49 46.5696 696.229 46.5284 695.982 46.309C695.708 46.0621 695.502 45.7741 695.365 45.445C695.201 45.0884 695.132 44.7456 695.159 44.4164C695.159 44.0873 695.283 43.8816 695.53 43.7993ZM711.845 34.9536C711.982 34.5971 712.325 34.4462 712.874 34.5011C713.45 34.5285 714.19 34.5971 715.096 34.7068C716.001 34.8165 717.057 34.8851 718.263 34.9125C719.47 34.9125 720.773 34.7205 722.172 34.3365C722.611 34.2268 722.817 34.2405 722.789 34.3776C722.762 34.4874 722.57 34.6794 722.213 34.9536C721.857 35.2005 721.377 35.5159 720.773 35.8999C720.197 36.2565 719.58 36.6268 718.922 37.0108C718.263 37.3673 717.605 37.7102 716.947 38.0393C716.289 38.341 715.713 38.5742 715.219 38.7388C715.274 39.2325 715.384 39.7673 715.548 40.3433C715.74 40.9193 715.96 41.4679 716.206 41.989C716.453 42.5102 716.714 42.949 716.988 43.3056C717.262 43.6621 717.537 43.8541 717.811 43.8816C718.167 43.9364 718.524 43.8404 718.881 43.5936C719.265 43.3193 719.594 42.9902 719.868 42.6062C720.087 42.277 720.252 42.1124 720.362 42.1124C720.499 42.085 720.581 42.1673 720.609 42.3593C720.636 42.5239 720.609 42.7707 720.526 43.0999C720.444 43.4016 720.307 43.717 720.115 44.0461C719.649 44.8141 719.031 45.4587 718.263 45.9798C717.523 46.4736 716.796 46.7341 716.083 46.7616C715.48 46.789 714.904 46.6518 714.355 46.3501C713.834 46.021 713.368 45.6096 712.956 45.1158C712.572 44.5947 712.284 44.0187 712.092 43.3879C711.9 42.757 711.832 42.1399 711.886 41.5364C711.941 41.0702 712.147 40.6039 712.504 40.1376C712.86 39.6439 713.272 39.205 713.738 38.821C713.409 38.7113 713.107 38.5056 712.833 38.2039C712.558 37.9022 712.325 37.5731 712.133 37.2165C711.941 36.8325 711.818 36.4485 711.763 36.0645C711.708 35.6531 711.736 35.2828 711.845 34.9536ZM719.402 46.7616C718.935 46.8713 718.661 46.8027 718.579 46.5558C718.469 46.309 718.524 45.9798 718.743 45.5684C718.935 45.157 719.251 44.7181 719.69 44.2519C720.129 43.7856 720.65 43.3879 721.253 43.0587C720.54 42.6747 720.005 42.1399 719.649 41.4542C719.292 40.741 719.196 40.0416 719.361 39.3559C719.498 38.8896 719.868 38.4645 720.471 38.0805C721.075 37.6691 721.815 37.3125 722.693 37.0108C723.571 36.6816 724.531 36.3936 725.573 36.1468C726.643 35.8725 727.671 35.6119 728.659 35.3651C729.646 35.1182 730.565 34.8851 731.415 34.6656C732.266 34.4188 732.938 34.1719 733.431 33.9251C733.87 33.6782 734.144 33.6371 734.254 33.8017C734.391 33.9662 734.391 34.2542 734.254 34.6656C734.117 35.0771 733.884 35.5571 733.555 36.1056C733.253 36.6542 732.896 37.2028 732.485 37.7513C732.074 38.2725 731.648 38.7525 731.21 39.1913C730.771 39.6027 730.373 39.8633 730.016 39.973C729.852 40.0279 729.509 40.0827 728.988 40.1376C728.851 40.6039 728.631 41.0427 728.33 41.4542C728.055 41.8382 727.726 42.181 727.342 42.4827C728.467 42.6199 729.303 42.853 729.852 43.1822C730.4 43.4839 730.743 43.8267 730.88 44.2107C731.045 44.677 731.059 45.2393 730.922 45.8976C730.784 46.5284 730.538 47.1593 730.181 47.7901C729.852 48.4484 729.44 49.0518 728.947 49.6004C728.48 50.149 727.973 50.5467 727.424 50.7935C726.684 51.1501 725.888 51.3695 725.038 51.4518C724.215 51.5341 723.42 51.5478 722.652 51.4929C721.911 51.4381 721.253 51.3558 720.677 51.2461C720.129 51.1364 719.745 51.0541 719.525 50.9992C719.196 50.9169 719.114 50.6564 719.278 50.2175C719.443 49.8061 719.717 49.3672 720.101 48.901C720.513 48.4347 720.979 48.0233 721.5 47.6667C722.021 47.3101 722.474 47.1455 722.858 47.173C723.214 47.2278 723.543 47.365 723.845 47.5844C724.174 47.8038 724.49 48.0233 724.791 48.2427C725.12 48.4621 725.463 48.6267 725.82 48.7364C726.176 48.8461 726.602 48.7912 727.095 48.5718C727.37 48.4621 727.685 48.2564 728.042 47.9547C728.426 47.653 728.755 47.3375 729.029 47.0084C729.303 46.6518 729.495 46.3364 729.605 46.0621C729.742 45.7604 729.715 45.5684 729.523 45.4861C729.194 45.349 728.659 45.2941 727.918 45.3216C727.178 45.349 726.327 45.445 725.367 45.6096C724.407 45.7467 723.392 45.925 722.323 46.1444C721.281 46.3364 720.307 46.5421 719.402 46.7616ZM721.664 41.1662C721.582 41.6324 721.788 41.9342 722.282 42.0713C722.775 42.2084 723.351 42.2222 724.01 42.1124C724.668 42.0027 725.326 41.7833 725.984 41.4542C726.67 41.125 727.164 40.7136 727.466 40.2199C726.862 40.2473 726.218 40.2747 725.532 40.3022C724.874 40.3296 724.256 40.3707 723.68 40.4256C723.132 40.4805 722.666 40.5765 722.282 40.7136C721.898 40.8233 721.692 40.9742 721.664 41.1662ZM733.981 39.685C734.2 39.5753 734.557 39.4245 735.051 39.2325C735.544 39.013 736.052 38.821 736.573 38.6565C737.121 38.4919 737.629 38.3822 738.095 38.3273C738.561 38.2725 738.863 38.3273 739 38.4919C739.137 38.6565 739.288 39.0405 739.453 39.6439C739.645 40.2473 739.837 40.8782 740.029 41.5364C740.248 42.1947 740.495 42.7982 740.769 43.3467C741.044 43.8679 741.359 44.1421 741.716 44.1696C742.045 44.197 742.36 44.1421 742.662 44.005C742.964 43.8679 743.238 43.6896 743.485 43.4701C743.732 43.2507 743.937 43.0313 744.102 42.8119C744.294 42.565 744.431 42.3593 744.513 42.1947C744.596 42.0302 744.705 41.9479 744.843 41.9479C745.007 41.9204 745.076 42.0164 745.048 42.2359C745.048 42.4279 744.925 42.757 744.678 43.2233C744.431 43.6896 743.965 44.3067 743.279 45.0747C741.88 46.6381 740.66 47.557 739.617 47.8313C738.603 48.1055 737.848 47.8861 737.355 47.173C737.08 46.789 736.888 46.2267 736.779 45.4861C736.422 45.8701 735.997 46.2541 735.503 46.6381C735.037 47.0221 734.571 47.3238 734.104 47.5433C733.638 47.7627 733.199 47.8587 732.788 47.8313C732.404 47.8313 732.102 47.6393 731.883 47.2553C731.636 46.789 731.608 46.2953 731.8 45.7741C731.965 45.2256 732.267 44.6907 732.705 44.1696C733.172 43.621 733.72 43.0862 734.351 42.565C734.982 42.0439 735.613 41.5776 736.244 41.1662C736.189 40.645 736.12 40.3159 736.038 40.1787C735.983 40.0965 735.805 40.1513 735.503 40.3433C735.229 40.5079 734.913 40.7136 734.557 40.9605C734.2 41.1799 733.844 41.3719 733.487 41.5364C733.131 41.701 732.856 41.7284 732.664 41.6187C732.445 41.509 732.349 41.3719 732.376 41.2073C732.404 41.0153 732.486 40.8233 732.623 40.6313C732.788 40.4393 732.993 40.261 733.24 40.0965C733.487 39.9319 733.734 39.7947 733.981 39.685ZM736.532 43.8404C736.477 43.5661 736.436 43.3056 736.408 43.0587C736.408 42.7844 736.395 42.5239 736.367 42.277C735.873 42.661 735.531 43.0587 735.339 43.4701C735.174 43.8541 735.119 44.1284 735.174 44.293C735.229 44.485 735.366 44.581 735.585 44.581C735.805 44.5536 736.12 44.3067 736.532 43.8404ZM749.556 39.3559C749.501 39.877 749.473 40.3845 749.473 40.8782C749.473 41.3719 749.501 41.8107 749.556 42.1947C749.638 42.5787 749.734 42.8804 749.844 43.0999C749.981 43.3193 750.159 43.4153 750.378 43.3879C750.543 43.3604 750.708 43.1684 750.872 42.8119C751.037 42.4279 751.188 41.989 751.325 41.4953C751.489 40.9742 751.613 40.453 751.695 39.9319C751.805 39.4108 751.873 38.9856 751.901 38.6565C751.928 38.3273 752.093 37.9296 752.394 37.4633C752.696 36.9971 753.025 36.5719 753.382 36.1879C753.766 35.7765 754.122 35.4474 754.452 35.2005C754.781 34.9536 754.986 34.8988 755.069 35.0359C755.124 35.1182 755.137 35.4336 755.11 35.9822C755.11 36.5033 755.082 37.1616 755.028 37.957C754.973 38.7525 754.918 39.6302 754.863 40.5902C754.808 41.5227 754.781 42.4416 754.781 43.3467C754.781 44.2519 754.794 45.0884 754.822 45.8564C754.877 46.6244 754.986 47.2278 755.151 47.6667C755.398 48.325 755.686 48.7775 756.015 49.0244C756.372 49.2987 756.701 49.477 757.002 49.5592C757.332 49.6415 757.606 49.6827 757.825 49.6827C758.072 49.6827 758.223 49.7375 758.278 49.8472C758.36 50.0118 758.278 50.3272 758.031 50.7935C757.812 51.2872 757.469 51.7535 757.002 52.1924C756.564 52.6312 756.042 52.9604 755.439 53.1798C754.836 53.3992 754.191 53.3306 753.505 52.9741C752.765 52.5626 752.271 51.9181 752.024 51.0404C751.777 50.1901 751.654 49.2301 751.654 48.1604C751.654 47.0907 751.722 46.0073 751.86 44.9101C751.997 43.813 752.065 42.8256 752.065 41.9479C751.983 42.6884 751.846 43.3879 751.654 44.0461C751.462 44.677 751.229 45.2393 750.954 45.733C750.68 46.2267 750.392 46.6107 750.09 46.885C749.789 47.1593 749.473 47.2964 749.144 47.2964C748.65 47.2964 748.198 47.0495 747.786 46.5558C747.402 46.0347 747.101 45.4176 746.881 44.7044C746.854 45.7741 746.813 46.7341 746.758 47.5844C746.703 48.4347 746.648 48.997 746.593 49.2712C746.401 50.1215 746.168 50.8347 745.894 51.4107C745.62 52.0141 745.332 52.4941 745.03 52.8506C744.756 53.2072 744.481 53.4541 744.207 53.5912C743.96 53.7284 743.768 53.7695 743.631 53.7146C743.412 53.6324 743.288 53.2484 743.261 52.5626C743.206 51.9044 743.192 50.9992 743.22 49.8472C743.247 48.6953 743.288 47.3238 743.343 45.733C743.425 44.1421 743.467 42.373 743.467 40.4256C743.467 39.9045 743.59 39.4382 743.837 39.0268C744.084 38.5879 744.372 38.2313 744.701 37.957C745.057 37.6828 745.4 37.5045 745.729 37.4222C746.058 37.3125 746.305 37.3262 746.47 37.4633C746.607 37.6005 746.703 38.0119 746.758 38.6976C746.813 39.3833 746.854 40.2062 746.881 41.1662C746.964 40.8919 747.087 40.6587 747.252 40.4667C748.047 39.3696 748.637 38.7799 749.021 38.6976C749.432 38.5879 749.61 38.8073 749.556 39.3559ZM756.363 34.9536C756.5 34.5971 756.843 34.4462 757.391 34.5011C757.967 34.5285 758.708 34.5971 759.613 34.7068C760.518 34.8165 761.574 34.8851 762.781 34.9125C763.988 34.9125 765.291 34.7205 766.69 34.3365C767.128 34.2268 767.334 34.2405 767.307 34.3776C767.279 34.4874 767.087 34.6794 766.731 34.9536C766.374 35.2005 765.894 35.5159 765.291 35.8999C764.715 36.2565 764.098 36.6268 763.439 37.0108C762.781 37.3673 762.123 37.7102 761.464 38.0393C760.806 38.341 760.23 38.5742 759.736 38.7388C759.791 39.2325 759.901 39.7673 760.066 40.3433C760.258 40.9193 760.477 41.4679 760.724 41.989C760.971 42.5102 761.231 42.949 761.506 43.3056C761.78 43.6621 762.054 43.8541 762.328 43.8816C762.685 43.9364 763.042 43.8404 763.398 43.5936C763.782 43.3193 764.111 42.9902 764.386 42.6062C764.605 42.277 764.77 42.1124 764.879 42.1124C765.016 42.085 765.099 42.1673 765.126 42.3593C765.154 42.5239 765.126 42.7707 765.044 43.0999C764.962 43.4016 764.824 43.717 764.632 44.0461C764.166 44.8141 763.549 45.4587 762.781 45.9798C762.04 46.4736 761.314 46.7341 760.6 46.7616C759.997 46.789 759.421 46.6518 758.872 46.3501C758.351 46.021 757.885 45.6096 757.474 45.1158C757.09 44.5947 756.802 44.0187 756.61 43.3879C756.418 42.757 756.349 42.1399 756.404 41.5364C756.459 41.0702 756.664 40.6039 757.021 40.1376C757.378 39.6439 757.789 39.205 758.255 38.821C757.926 38.7113 757.624 38.5056 757.35 38.2039C757.076 37.9022 756.843 37.5731 756.651 37.2165C756.459 36.8325 756.335 36.4485 756.28 36.0645C756.226 35.6531 756.253 35.2828 756.363 34.9536Z" fill="white"/>
</g>
<g filter="url(#filter13_d_2010_169)">
<path d="M758.305 28.6666C757.59 29.2625 757.097 31.3657 758.893 32.4269C763.301 35.0392 765.914 31.6106 765.995 30.631C766.077 29.6514 765.097 28.7535 764.363 28.1004C763.628 27.4474 764.609 29.0649 764.363 29.4882C763.938 30.2176 762.037 30.3552 762.648 28.7535C763.366 26.8707 758.877 24.3401 759.53 25.483C760.183 26.6258 760.264 27.034 758.305 28.6666Z" fill="#B0102E"/>
</g>
<g filter="url(#filter14_d_2010_169)">
<path d="M760.346 24.8299C760.789 25.2725 761.326 25.3197 762.55 26.7074C762.795 25.7278 760.509 24.7483 760.673 23.3605C760.761 22.613 760.836 22.5442 760.101 23.2789C759.367 24.0136 760.264 24.7482 760.346 24.8299Z" fill="#B0102E"/>
</g>
<g filter="url(#filter15_d_2010_169)">
<path d="M589 48L579 24H601L612 48H589Z" fill="white" fill-opacity="0.05"/>
<path d="M611.221 47.5H589.333L579.75 24.5H600.679L611.221 47.5Z" stroke="#A88769" stroke-opacity="0.25"/>
</g>
<g filter="url(#filter16_d_2010_169)">
<path d="M838 48L848 24H826L815 48H838Z" fill="white" fill-opacity="0.05"/>
<path d="M815.779 47.5H837.667L847.25 24.5H826.321L815.779 47.5Z" stroke="#A88769" stroke-opacity="0.25"/>
</g>
<g filter="url(#filter17_d_2010_169)">
<path d="M622 48L612 24H634L645 48H622Z" fill="white" fill-opacity="0.05"/>
<path d="M644.221 47.5H622.333L612.75 24.5H633.679L644.221 47.5Z" stroke="#A88769" stroke-opacity="0.25"/>
</g>
<g filter="url(#filter18_d_2010_169)">
<path d="M805 48L815 24H793L782 48H805Z" fill="white" fill-opacity="0.05"/>
<path d="M782.779 47.5H804.667L814.25 24.5H793.321L782.779 47.5Z" stroke="#A88769" stroke-opacity="0.25"/>
</g>
<defs>
<filter id="filter0_d_2010_169" x="0" y="0.0690918" width="603" height="398" filterUnits="userSpaceOnUse" color-interpolation-filters="sRGB">
<feFlood flood-opacity="0" result="BackgroundImageFix"/>
<feColorMatrix in="SourceAlpha" type="matrix" values="0 0 0 0 0 0 0 0 0 0 0 0 0 0 0 0 0 0 127 0" result="hardAlpha"/>
<feOffset/>
<feGaussianBlur stdDeviation="12"/>
<feColorMatrix type="matrix" values="0 0 0 0 0.658824 0 0 0 0 0.529412 0 0 0 0 0.411765 0 0 0 0.15 0"/>
<feBlend mode="normal" in2="BackgroundImageFix" result="effect1_dropShadow_2010_169"/>
<feBlend mode="normal" in="SourceGraphic" in2="effect1_dropShadow_2010_169" result="shape"/>
</filter>
<filter id="filter1_d_2010_169" x="0" y="426" width="72" height="81" filterUnits="userSpaceOnUse" color-interpolation-filters="sRGB">
<feFlood flood-opacity="0" result="BackgroundImageFix"/>
<feColorMatrix in="SourceAlpha" type="matrix" values="0 0 0 0 0 0 0 0 0 0 0 0 0 0 0 0 0 0 127 0" result="hardAlpha"/>
<feOffset/>
<feGaussianBlur stdDeviation="12"/>
<feColorMatrix type="matrix" values="0 0 0 0 0.658824 0 0 0 0 0.529412 0 0 0 0 0.411765 0 0 0 0.5 0"/>
<feBlend mode="normal" in2="BackgroundImageFix" result="effect1_dropShadow_2010_169"/>
<feBlend mode="normal" in="SourceGraphic" in2="effect1_dropShadow_2010_169" result="shape"/>
</filter>
<filter id="filter2_d_2010_169" x="0" y="459" width="72" height="81" filterUnits="userSpaceOnUse" color-interpolation-filters="sRGB">
<feFlood flood-opacity="0" result="BackgroundImageFix"/>
<feColorMatrix in="SourceAlpha" type="matrix" values="0 0 0 0 0 0 0 0 0 0 0 0 0 0 0 0 0 0 127 0" result="hardAlpha"/>
<feOffset/>
<feGaussianBlur stdDeviation="12"/>
<feColorMatrix type="matrix" values="0 0 0 0 0.658824 0 0 0 0 0.529412 0 0 0 0 0.411765 0 0 0 0.5 0"/>
<feBlend mode="normal" in2="BackgroundImageFix" result="effect1_dropShadow_2010_169"/>
<feBlend mode="normal" in="SourceGraphic" in2="effect1_dropShadow_2010_169" result="shape"/>
</filter>
<filter id="filter3_d_2010_169" x="0" y="492" width="72" height="81" filterUnits="userSpaceOnUse" color-interpolation-filters="sRGB">
<feFlood flood-opacity="0" result="BackgroundImageFix"/>
<feColorMatrix in="SourceAlpha" type="matrix" values="0 0 0 0 0 0 0 0 0 0 0 0 0 0 0 0 0 0 127 0" result="hardAlpha"/>
<feOffset/>
<feGaussianBlur stdDeviation="12"/>
<feColorMatrix type="matrix" values="0 0 0 0 0.658824 0 0 0 0 0.529412 0 0 0 0 0.411765 0 0 0 0.5 0"/>
<feBlend mode="normal" in2="BackgroundImageFix" result="effect1_dropShadow_2010_169"/>
<feBlend mode="normal" in="SourceGraphic" in2="effect1_dropShadow_2010_169" result="shape"/>
</filter>
<filter id="filter4_d_2010_169" x="0" y="525" width="72" height="81" filterUnits="userSpaceOnUse" color-interpolation-filters="sRGB">
<feFlood flood-opacity="0" result="BackgroundImageFix"/>
<feColorMatrix in="SourceAlpha" type="matrix" values="0 0 0 0 0 0 0 0 0 0 0 0 0 0 0 0 0 0 127 0" result="hardAlpha"/>
<feOffset/>
<feGaussianBlur stdDeviation="12"/>
<feColorMatrix type="matrix" values="0 0 0 0 0.658824 0 0 0 0 0.529412 0 0 0 0 0.411765 0 0 0 0.5 0"/>
<feBlend mode="normal" in2="BackgroundImageFix" result="effect1_dropShadow_2010_169"/>
<feBlend mode="normal" in="SourceGraphic" in2="effect1_dropShadow_2010_169" result="shape"/>
</filter>
<filter id="filter5_d_2010_169" x="2.22369" y="355.737" width="67.642" height="115.093" filterUnits="userSpaceOnUse" color-interpolation-filters="sRGB">
<feFlood flood-opacity="0" result="BackgroundImageFix"/>
<feColorMatrix in="SourceAlpha" type="matrix" values="0 0 0 0 0 0 0 0 0 0 0 0 0 0 0 0 0 0 127 0" result="hardAlpha"/>
<feOffset/>
<feGaussianBlur stdDeviation="12"/>
<feComposite in2="hardAlpha" operator="out"/>
<feColorMatrix type="matrix" values="0 0 0 0 0.657357 0 0 0 0 0.528578 0 0 0 0 0.412678 0 0 0 0.5 0"/>
<feBlend mode="normal" in2="BackgroundImageFix" result="effect1_dropShadow_2010_169"/>
<feBlend mode="normal" in="SourceGraphic" in2="effect1_dropShadow_2010_169" result="shape"/>
</filter>
<filter id="filter6_d_2010_169" x="1353" y="426" width="72" height="81" filterUnits="userSpaceOnUse" color-interpolation-filters="sRGB">
<feFlood flood-opacity="0" result="BackgroundImageFix"/>
<feColorMatrix in="SourceAlpha" type="matrix" values="0 0 0 0 0 0 0 0 0 0 0 0 0 0 0 0 0 0 127 0" result="hardAlpha"/>
<feOffset/>
<feGaussianBlur stdDeviation="12"/>
<feColorMatrix type="matrix" values="0 0 0 0 0.658824 0 0 0 0 0.529412 0 0 0 0 0.411765 0 0 0 0.5 0"/>
<feBlend mode="normal" in2="BackgroundImageFix" result="effect1_dropShadow_2010_169"/>
<feBlend mode="normal" in="SourceGraphic" in2="effect1_dropShadow_2010_169" result="shape"/>
</filter>
<filter id="filter7_d_2010_169" x="1353" y="459" width="72" height="81" filterUnits="userSpaceOnUse" color-interpolation-filters="sRGB">
<feFlood flood-opacity="0" result="BackgroundImageFix"/>
<feColorMatrix in="SourceAlpha" type="matrix" values="0 0 0 0 0 0 0 0 0 0 0 0 0 0 0 0 0 0 127 0" result="hardAlpha"/>
<feOffset/>
<feGaussianBlur stdDeviation="12"/>
<feColorMatrix type="matrix" values="0 0 0 0 0.658824 0 0 0 0 0.529412 0 0 0 0 0.411765 0 0 0 0.5 0"/>
<feBlend mode="normal" in2="BackgroundImageFix" result="effect1_dropShadow_2010_169"/>
<feBlend mode="normal" in="SourceGraphic" in2="effect1_dropShadow_2010_169" result="shape"/>
</filter>
<filter id="filter8_d_2010_169" x="1353" y="492" width="72" height="81" filterUnits="userSpaceOnUse" color-interpolation-filters="sRGB">
<feFlood flood-opacity="0" result="BackgroundImageFix"/>
<feColorMatrix in="SourceAlpha" type="matrix" values="0 0 0 0 0 0 0 0 0 0 0 0 0 0 0 0 0 0 127 0" result="hardAlpha"/>
<feOffset/>
<feGaussianBlur stdDeviation="12"/>
<feColorMatrix type="matrix" values="0 0 0 0 0.658824 0 0 0 0 0.529412 0 0 0 0 0.411765 0 0 0 0.5 0"/>
<feBlend mode="normal" in2="BackgroundImageFix" result="effect1_dropShadow_2010_169"/>
<feBlend mode="normal" in="SourceGraphic" in2="effect1_dropShadow_2010_169" result="shape"/>
</filter>
<filter id="filter9_d_2010_169" x="1353" y="525" width="72" height="81" filterUnits="userSpaceOnUse" color-interpolation-filters="sRGB">
<feFlood flood-opacity="0" result="BackgroundImageFix"/>
<feColorMatrix in="SourceAlpha" type="matrix" values="0 0 0 0 0 0 0 0 0 0 0 0 0 0 0 0 0 0 127 0" result="hardAlpha"/>
<feOffset/>
<feGaussianBlur stdDeviation="12"/>
<feColorMatrix type="matrix" values="0 0 0 0 0.658824 0 0 0 0 0.529412 0 0 0 0 0.411765 0 0 0 0.5 0"/>
<feBlend mode="normal" in2="BackgroundImageFix" result="effect1_dropShadow_2010_169"/>
<feBlend mode="normal" in="SourceGraphic" in2="effect1_dropShadow_2010_169" result="shape"/>
</filter>
<filter id="filter10_d_2010_169" x="1355.22" y="355.737" width="67.642" height="115.093" filterUnits="userSpaceOnUse" color-interpolation-filters="sRGB">
<feFlood flood-opacity="0" result="BackgroundImageFix"/>
<feColorMatrix in="SourceAlpha" type="matrix" values="0 0 0 0 0 0 0 0 0 0 0 0 0 0 0 0 0 0 127 0" result="hardAlpha"/>
<feOffset/>
<feGaussianBlur stdDeviation="12"/>
<feComposite in2="hardAlpha" operator="out"/>
<feColorMatrix type="matrix" values="0 0 0 0 0.657357 0 0 0 0 0.528578 0 0 0 0 0.412678 0 0 0 0.5 0"/>
<feBlend mode="normal" in2="BackgroundImageFix" result="effect1_dropShadow_2010_169"/>
<feBlend mode="normal" in="SourceGraphic" in2="effect1_dropShadow_2010_169" result="shape"/>
</filter>
<filter id="filter11_d_2010_169" x="821" y="0" width="604" height="398.069" filterUnits="userSpaceOnUse" color-interpolation-filters="sRGB">
<feFlood flood-opacity="0" result="BackgroundImageFix"/>
<feColorMatrix in="SourceAlpha" type="matrix" values="0 0 0 0 0 0 0 0 0 0 0 0 0 0 0 0 0 0 127 0" result="hardAlpha"/>
<feOffset/>
<feGaussianBlur stdDeviation="12"/>
<feColorMatrix type="matrix" values="0 0 0 0 0.658824 0 0 0 0 0.529412 0 0 0 0 0.411765 0 0 0 0.15 0"/>
<feBlend mode="normal" in2="BackgroundImageFix" result="effect1_dropShadow_2010_169"/>
<feBlend mode="normal" in="SourceGraphic" in2="effect1_dropShadow_2010_169" result="shape"/>
</filter>
<filter id="filter12_d_2010_169" x="643.023" y="8.14044" width="136.08" height="57.8641" filterUnits="userSpaceOnUse" color-interpolation-filters="sRGB">
<feFlood flood-opacity="0" result="BackgroundImageFix"/>
<feColorMatrix in="SourceAlpha" type="matrix" values="0 0 0 0 0 0 0 0 0 0 0 0 0 0 0 0 0 0 127 0" result="hardAlpha"/>
<feOffset/>
<feGaussianBlur stdDeviation="5.87751"/>
<feComposite in2="hardAlpha" operator="out"/>
<feColorMatrix type="matrix" values="0 0 0 0 0.657357 0 0 0 0 0.528578 0 0 0 0 0.412678 0 0 0 0.75 0"/>
<feBlend mode="normal" in2="BackgroundImageFix" result="effect1_dropShadow_2010_169"/>
<feBlend mode="normal" in="SourceGraphic" in2="effect1_dropShadow_2010_169" result="shape"/>
</filter>
<filter id="filter13_d_2010_169" x="749.168" y="16.7075" width="25.3221" height="25.1712" filterUnits="userSpaceOnUse" color-interpolation-filters="sRGB">
<feFlood flood-opacity="0" result="BackgroundImageFix"/>
<feColorMatrix in="SourceAlpha" type="matrix" values="0 0 0 0 0 0 0 0 0 0 0 0 0 0 0 0 0 0 127 0" result="hardAlpha"/>
<feOffset/>
<feGaussianBlur stdDeviation="4.24487"/>
<feComposite in2="hardAlpha" operator="out"/>
<feColorMatrix type="matrix" values="0 0 0 0 0.658824 0 0 0 0 0.529412 0 0 0 0 0.411765 0 0 0 0.75 0"/>
<feBlend mode="normal" in2="BackgroundImageFix" result="effect1_dropShadow_2010_169"/>
<feBlend mode="normal" in="SourceGraphic" in2="effect1_dropShadow_2010_169" result="shape"/>
</filter>
<filter id="filter14_d_2010_169" x="751.324" y="14.2727" width="19.7338" height="20.9244" filterUnits="userSpaceOnUse" color-interpolation-filters="sRGB">
<feFlood flood-opacity="0" result="BackgroundImageFix"/>
<feColorMatrix in="SourceAlpha" type="matrix" values="0 0 0 0 0 0 0 0 0 0 0 0 0 0 0 0 0 0 127 0" result="hardAlpha"/>
<feOffset/>
<feGaussianBlur stdDeviation="4.24487"/>
<feComposite in2="hardAlpha" operator="out"/>
<feColorMatrix type="matrix" values="0 0 0 0 0.658824 0 0 0 0 0.529412 0 0 0 0 0.411765 0 0 0 0.75 0"/>
<feBlend mode="normal" in2="BackgroundImageFix" result="effect1_dropShadow_2010_169"/>
<feBlend mode="normal" in="SourceGraphic" in2="effect1_dropShadow_2010_169" result="shape"/>
</filter>
<filter id="filter15_d_2010_169" x="555" y="0" width="81" height="72" filterUnits="userSpaceOnUse" color-interpolation-filters="sRGB">
<feFlood flood-opacity="0" result="BackgroundImageFix"/>
<feColorMatrix in="SourceAlpha" type="matrix" values="0 0 0 0 0 0 0 0 0 0 0 0 0 0 0 0 0 0 127 0" result="hardAlpha"/>
<feOffset/>
<feGaussianBlur stdDeviation="12"/>
<feColorMatrix type="matrix" values="0 0 0 0 0.658824 0 0 0 0 0.529412 0 0 0 0 0.411765 0 0 0 0.25 0"/>
<feBlend mode="normal" in2="BackgroundImageFix" result="effect1_dropShadow_2010_169"/>
<feBlend mode="normal" in="SourceGraphic" in2="effect1_dropShadow_2010_169" result="shape"/>
</filter>
<filter id="filter16_d_2010_169" x="791" y="0" width="81" height="72" filterUnits="userSpaceOnUse" color-interpolation-filters="sRGB">
<feFlood flood-opacity="0" result="BackgroundImageFix"/>
<feColorMatrix in="SourceAlpha" type="matrix" values="0 0 0 0 0 0 0 0 0 0 0 0 0 0 0 0 0 0 127 0" result="hardAlpha"/>
<feOffset/>
<feGaussianBlur stdDeviation="12"/>
<feColorMatrix type="matrix" values="0 0 0 0 0.658824 0 0 0 0 0.529412 0 0 0 0 0.411765 0 0 0 0.25 0"/>
<feBlend mode="normal" in2="BackgroundImageFix" result="effect1_dropShadow_2010_169"/>
<feBlend mode="normal" in="SourceGraphic" in2="effect1_dropShadow_2010_169" result="shape"/>
</filter>
<filter id="filter17_d_2010_169" x="588" y="0" width="81" height="72" filterUnits="userSpaceOnUse" color-interpolation-filters="sRGB">
<feFlood flood-opacity="0" result="BackgroundImageFix"/>
<feColorMatrix in="SourceAlpha" type="matrix" values="0 0 0 0 0 0 0 0 0 0 0 0 0 0 0 0 0 0 127 0" result="hardAlpha"/>
<feOffset/>
<feGaussianBlur stdDeviation="12"/>
<feColorMatrix type="matrix" values="0 0 0 0 0.658824 0 0 0 0 0.529412 0 0 0 0 0.411765 0 0 0 0.25 0"/>
<feBlend mode="normal" in2="BackgroundImageFix" result="effect1_dropShadow_2010_169"/>
<feBlend mode="normal" in="SourceGraphic" in2="effect1_dropShadow_2010_169" result="shape"/>
</filter>
<filter id="filter18_d_2010_169" x="758" y="0" width="81" height="72" filterUnits="userSpaceOnUse" color-interpolation-filters="sRGB">
<feFlood flood-opacity="0" result="BackgroundImageFix"/>
<feColorMatrix in="SourceAlpha" type="matrix" values="0 0 0 0 0 0 0 0 0 0 0 0 0 0 0 0 0 0 127 0" result="hardAlpha"/>
<feOffset/>
<feGaussianBlur stdDeviation="12"/>
<feColorMatrix type="matrix" values="0 0 0 0 0.658824 0 0 0 0 0.529412 0 0 0 0 0.411765 0 0 0 0.25 0"/>
<feBlend mode="normal" in2="BackgroundImageFix" result="effect1_dropShadow_2010_169"/>
<feBlend mode="normal" in="SourceGraphic" in2="effect1_dropShadow_2010_169" result="shape"/>
</filter>
</defs>
</svg>
